<svg width="512" height="512" viewBox="0 0 512 512" fill="none" xmlns="http://www.w3.org/2000/svg">
<g clip-path="url(#clip0_144_12)">
<rect width="512" height="512" rx="32" fill="white"/>
<path d="M433.082 145.801H416.36V226.559H433.082C442.33 226.559 449.844 219.059 449.844 209.81V162.563C449.844 153.315 442.331 145.801 433.082 145.801Z" fill="#10B981"/>
<path d="M433.082 339.605H416.36V420.362H433.082C442.33 420.362 449.844 412.849 449.844 403.6V356.352C449.844 347.104 442.331 339.605 433.082 339.605Z" fill="#10B981"/>
<path d="M433.082 242.71H416.36V323.454H433.082C442.33 323.454 449.844 315.954 449.844 306.705V259.458C449.844 250.223 442.331 242.71 433.082 242.71Z" fill="#10B981"/>
<path d="M352.854 114.394H327.847V250.712C327.847 255.078 325.379 259.039 321.473 260.977C317.567 262.889 312.902 262.429 309.458 259.77L275.446 233.61L241.434 259.77C237.989 262.429 233.338 262.889 229.432 260.977C225.527 259.039 223.045 255.078 223.045 250.712V114.394H116.943C109.783 114.394 103.423 111.519 98.717 106.841C94.025 102.108 91.1635 95.7609 91.1635 88.6005C91.1635 81.4402 94.025 75.0801 98.717 70.3604C103.423 65.6815 109.783 62.8069 116.943 62.8069H347.836C355.837 62.8069 362.32 56.3244 362.32 48.3101C362.32 40.2958 355.837 33.8133 347.837 33.8133H116.943C101.863 33.8133 88.085 39.9703 78.2125 49.8698C68.313 59.7284 62.156 73.5205 62.156 88.6005V442.385C62.156 462.157 78.1856 478.187 97.9576 478.187H352.854C380.112 478.187 402.19 456.109 402.19 428.878V163.702C402.19 136.471 380.112 114.394 352.854 114.394Z" fill="#10B981"/>
</g>
<defs>
<clipPath id="clip0_144_12">
<rect width="512" height="512" fill="white"/>
</clipPath>
</defs>
</svg>
